<svg xmlns="http://www.w3.org/2000/svg" viewBox="0 0 195.68 195.68"><defs><style>.a{fill:#1c202b;}</style></defs><title>ya_favicon___</title><path class="a" d="M943.15,444.43a97.79,97.79,0,1,1-55.78,30.66,98.17,98.17,0,0,1,55.78-30.66Zm3.49,16.29c-27.26,4.24-51.46,23.54-61.82,49.08a80.42,80.42,0,0,0-.8,60.11,81.22,81.22,0,1,0,124.43-94.07c-17.38-13.15-40.32-18.95-61.81-15.12Zm-13.5,37.35c9-9.11,22.28-11.75,34.61-12.07,9.89,0,19.8.14,29.69-.11q.06,54.84,0,109.7c-6.4,0-12.81,0-19.22,0q0-47.54,0-95.05c-9.45.14-20.24-1.24-28.09,5.22-8,6.1-7.61,17.83-4.44,26.37,4.74,11.11,16.8,15.55,25.6,22.74-9.52,13.4-18.45,27.21-27.78,40.76-7.33-.09-14.65,0-22,0,8.7-12.34,17.52-24.59,26.24-36.91-8.82-6.38-18.14-13.61-21.6-24.4-3.68-12.16-2.15-26.76,7-36.21Z" transform="translate(-862 -443)"/></svg>